<?xml version="1.0" standalone="no"?>
<!DOCTYPE svg PUBLIC "-//W3C//DTD SVG 20010904//EN"
 "http://www.w3.org/TR/2001/REC-SVG-20010904/DTD/svg10.dtd">
<svg version="1.0" xmlns="http://www.w3.org/2000/svg"
 width="900.000000pt" height="900.000000pt" viewBox="0 0 900.000000 900.000000"
 preserveAspectRatio="xMidYMid meet">
<metadata>
Created by potrace 1.10, written by Peter Selinger 2001-2011
</metadata>
<g transform="translate(0.000000,900.000000) scale(0.100000,-0.100000)"
fill="#000000" stroke="none">
<path d="M1860 7745 l0 -335 164 0 c90 0 171 -3 180 -6 15 -6 16 -166 16
-1714 0 -1548 -1 -1708 -16 -1714 -9 -3 -90 -6 -180 -6 l-164 0 0 -335 0 -335
1807 0 1807 0 388 388 388 387 0 748 0 748 -120 122 c-66 67 -161 163 -210
212 -58 58 -90 98 -90 112 0 19 50 80 145 177 17 17 67 72 113 122 l82 91 0
454 0 453 -382 383 -383 383 -1772 0 -1773 0 0 -335z m3423 -518 l177 -172 0
-189 0 -190 -180 -179 -180 -180 -1086 0 c-913 0 -1088 3 -1095 14 -14 23 -11
1043 3 1057 9 9 267 12 1098 12 l1086 0 177 -173z m0 -1758 l177 -172 0 -479
0 -480 -82 -86 c-46 -48 -129 -131 -184 -184 l-102 -98 -1079 0 c-826 0 -1082
3 -1091 12 -17 17 -17 1629 0 1646 9 9 267 12 1098 12 l1086 0 177 -171z"/>
<path d="M3546 5101 c-4 -6 -9 -434 -6 -538 0 -10 33 -13 133 -13 72 0 139 -5
147 -10 12 -7 16 -44 20 -192 3 -101 8 -182 13 -180 4 1 160 2 347 2 l340 0 0
174 c0 145 3 177 16 190 12 13 41 16 150 16 l134 0 0 274 c0 240 -2 275 -16
280 -25 9 -1272 7 -1278 -3z"/>
<path d="M6797 5098 c-16 -12 -17 -38 -15 -278 l3 -265 135 -3 c112 -2 137 -5
148 -19 9 -13 12 -298 12 -1344 l0 -1326 -186 -187 -187 -186 -898 0 -897 0
-169 168 c-92 92 -176 178 -185 192 -17 23 -18 71 -18 643 l0 617 -349 0
c-224 0 -351 -4 -353 -10 -1 -5 -2 -365 0 -799 l2 -789 346 -346 c279 -278
352 -346 373 -346 14 0 589 0 1276 -1 l1250 0 348 347 347 347 0 1501 c0 926
4 1507 10 1516 7 12 40 16 151 20 l142 5 -1 225 c-1 124 -1 249 -2 278 l0 52
-633 0 c-491 0 -637 -3 -650 -12z"/>
</g>
</svg>
