<?xml version="1.0" standalone="no"?>
<!DOCTYPE svg PUBLIC "-//W3C//DTD SVG 20010904//EN"
 "http://www.w3.org/TR/2001/REC-SVG-20010904/DTD/svg10.dtd">
<svg version="1.0" xmlns="http://www.w3.org/2000/svg"
 width="300.000000pt" height="159.000000pt" viewBox="0 0 300.000000 159.000000"
 preserveAspectRatio="xMidYMid meet">
<metadata>
Created by potrace 1.10, written by Peter Selinger 2001-2011
</metadata>
<g transform="translate(0.000000,159.000000) scale(0.050000,-0.050000)"
fill="#000000" stroke="none">
<path d="M2320 2470 l0 -710 470 0 470 0 0 200 0 200 -270 0 -270 0 0 310 0
310 310 0 310 0 0 -270 0 -270 200 0 200 0 0 470 0 470 -710 0 -710 0 0 -710z"/>
<path d="M3340 1960 l0 -200 200 0 200 0 0 200 0 200 -200 0 -200 0 0 -200z"/>
<path d="M190 652 c-242 -107 -249 -487 -11 -607 142 -71 331 -43 418 62 44
52 -13 59 -82 9 -158 -112 -387 -35 -436 147 -69 259 222 471 419 305 52 -43
64 -46 74 -21 38 100 -228 173 -382 105z"/>
<path d="M1056 607 c-15 -184 6 -610 30 -602 15 5 26 61 30 143 l6 134 73 -6
c67 -5 80 -18 154 -141 44 -74 92 -135 106 -135 40 0 30 34 -45 151 -84 132
-83 113 -10 186 150 150 53 328 -187 340 l-150 7 -7 -77z m304 -27 c102 -102
22 -240 -140 -240 l-100 0 0 140 0 140 100 0 c73 0 111 -11 140 -40z"/>
<path d="M1920 340 l0 -340 210 0 c173 0 210 5 210 30 0 24 -33 30 -180 30
l-180 0 0 130 0 130 150 0 c120 0 150 6 150 30 0 24 -30 30 -150 30 l-150 0 0
120 0 120 170 0 c138 0 170 6 170 30 0 25 -36 30 -200 30 l-200 0 0 -340z"/>
<path d="M2780 340 l0 -340 95 0 c217 0 363 91 403 250 62 248 -94 429 -373
430 l-125 0 0 -340z m314 241 c260 -159 129 -520 -189 -521 l-65 0 0 280 0
280 95 0 c59 0 119 -15 159 -39z"/>
<path d="M3740 340 l0 -340 200 0 c164 0 200 5 200 30 0 24 -32 30 -170 30
l-170 0 0 130 0 130 150 0 c120 0 150 6 150 30 0 24 -30 30 -150 30 l-150 0 0
120 0 120 170 0 c138 0 170 6 170 30 0 25 -36 30 -200 30 l-200 0 0 -340z"/>
<path d="M4585 345 c4 -282 10 -335 35 -335 23 0 31 31 36 136 l6 136 73 -6
c67 -5 80 -18 154 -141 44 -74 92 -135 106 -135 40 0 30 34 -45 151 -84 132
-83 113 -10 186 160 160 37 343 -229 343 l-132 0 6 -335z m315 235 c102 -102
22 -240 -140 -240 l-100 0 0 140 0 140 100 0 c73 0 111 -11 140 -40z"/>
<path d="M5602 405 c-60 -151 -121 -304 -136 -340 -23 -57 -23 -65 4 -65 18 0
48 39 70 90 l39 90 141 0 142 0 40 -90 c34 -77 122 -139 92 -65 -5 14 -66 167
-135 340 -70 173 -131 315 -138 315 -6 0 -60 -124 -119 -275z m185 -20 c68
-175 72 -165 -67 -165 -66 0 -120 7 -120 15 0 30 107 285 120 285 8 0 38 -61
67 -135z"/>
</g>
</svg>
