<?xml version="1.0" standalone="no"?>
<!DOCTYPE svg PUBLIC "-//W3C//DTD SVG 20010904//EN"
 "http://www.w3.org/TR/2001/REC-SVG-20010904/DTD/svg10.dtd">
<svg version="1.0" xmlns="http://www.w3.org/2000/svg"
 width="780.000000pt" height="150.000000pt" viewBox="0 0 780.000000 150.000000"
 preserveAspectRatio="xMidYMid meet">
<metadata>
Created by potrace 1.10, written by Peter Selinger 2001-2011
</metadata>
<g transform="translate(0.000000,150.000000) scale(0.100000,-0.100000)"
fill="#000000" stroke="none">
<path d="M464 1082 l-352 -355 201 -201 c111 -111 204 -199 207 -198 3 2 14
20 25 40 27 50 57 86 138 164 82 80 155 131 275 190 78 39 113 52 232 86 19 6
53 17 75 26 40 15 39 15 -77 16 -125 0 -237 -13 -303 -36 -23 -8 -46 -14 -54
-14 -7 0 -56 -21 -109 -47 -90 -43 -190 -110 -221 -147 -7 -9 -23 -16 -35 -16
-28 1 -136 103 -136 130 0 11 4 20 8 20 10 0 445 435 467 468 21 29 49 28 69
-2 8 -14 73 -83 143 -154 l128 -129 80 -6 c44 -3 90 -9 103 -13 37 -11 29 36
-11 63 -44 31 -457 448 -457 462 0 6 -10 10 -22 9 -16 -1 -136 -115 -374 -356z"/>
<path d="M2050 1180 c-190 -9 -209 -12 -270 -53 -61 -40 -94 -88 -112 -162
-13 -49 -29 -567 -18 -578 4 -4 42 -7 86 -5 l79 3 0 169 0 170 180 -4 c99 -2
196 -4 215 -4 l35 -1 3 60 c1 33 -1 65 -5 70 -9 12 -380 5 -399 -8 -21 -12
-37 21 -31 63 6 46 35 90 80 122 31 22 39 23 205 20 l173 -2 -3 72 c-4 86 21
78 -218 68z"/>
<path d="M4294 1178 c-10 -16 -6 -780 4 -790 5 -5 38 -8 73 -6 l64 3 0 225 0
225 95 1 c120 1 125 0 148 -39 17 -29 18 -47 13 -207 -4 -96 -3 -183 1 -192 7
-14 22 -18 73 -18 35 0 66 3 68 8 3 4 2 108 -2 233 -7 251 -8 257 -80 305 -38
25 -45 26 -181 25 l-141 -1 3 117 3 118 -67 2 c-39 1 -71 -3 -74 -9z"/>
<path d="M5005 1180 c-3 -6 -6 -54 -5 -107 1 -54 1 -104 1 -111 -1 -10 -14
-13 -48 -10 l-48 3 0 -60 0 -60 48 3 c33 2 47 -1 48 -10 0 -7 0 -80 -1 -163 0
-137 1 -154 22 -195 29 -56 67 -75 165 -84 98 -8 103 -5 103 59 0 58 -7 65
-66 65 -64 0 -71 17 -75 180 l-4 145 50 -2 c87 -5 95 0 95 57 0 28 -5 52 -12
57 -7 4 -40 8 -73 8 l-60 0 0 115 0 115 -67 2 c-37 2 -70 -2 -73 -7z"/>
<path d="M5359 1175 c-5 -81 3 -781 9 -787 5 -5 40 -8 78 -6 l69 3 -4 148 -4
147 194 -2 c188 -3 195 -2 232 20 46 29 80 74 97 127 16 49 17 192 1 208 -6 6
-11 18 -11 27 0 9 -18 35 -41 57 -36 36 -49 43 -107 52 -90 14 -512 19 -513 6z
m462 -148 c73 -49 62 -173 -19 -211 -24 -12 -65 -16 -162 -16 l-130 0 0 118
c0 65 3 122 8 126 4 4 68 6 142 4 108 -2 140 -7 161 -21z"/>
<path d="M6350 1173 c-166 -53 -224 -145 -237 -374 -5 -96 -3 -126 12 -170 9
-30 21 -61 26 -69 5 -8 13 -24 18 -35 10 -23 64 -75 101 -96 101 -60 381 -61
451 -2 8 7 20 13 25 13 16 0 79 72 96 110 33 71 43 127 43 235 0 283 -120 407
-392 404 -54 -1 -118 -8 -143 -16z m223 -119 c61 -20 81 -35 115 -89 25 -38
26 -47 26 -180 0 -133 -1 -142 -26 -180 -34 -54 -54 -70 -111 -89 -60 -20 -94
-20 -154 0 -54 18 -84 43 -115 92 -18 30 -21 50 -21 177 0 128 2 146 21 177
30 49 57 71 110 89 62 22 93 22 155 3z"/>
<path d="M6961 1176 c-5 -6 -5 -96 -1 -199 5 -104 5 -275 0 -380 -4 -105 -5
-197 -3 -205 4 -9 26 -12 87 -10 l81 3 0 140 c0 77 3 145 7 150 4 7 39 8 95 4
48 -4 132 -6 185 -4 110 3 146 18 196 83 66 85 63 262 -6 342 -56 67 -78 73
-247 77 -82 2 -203 5 -268 6 -74 2 -121 -1 -126 -7z m471 -151 c37 -28 52 -82
37 -138 -9 -36 -18 -48 -49 -66 -35 -20 -51 -21 -167 -19 l-128 3 0 115 c-1
63 1 119 3 124 3 4 66 7 141 4 116 -3 140 -6 163 -23z"/>
<path d="M3384 1136 c-3 -7 -4 -38 -2 -67 l3 -54 75 0 75 0 3 44 c6 85 1 91
-79 91 -50 0 -71 -4 -75 -14z"/>
<path d="M2347 950 c-1 -3 -2 -131 -2 -285 l0 -280 70 0 70 0 0 225 0 225 52
3 c44 3 53 0 67 -20 9 -12 16 -39 16 -59 0 -44 8 -48 80 -40 l55 6 -1 71 c0
74 -10 97 -56 133 -23 19 -43 21 -188 24 -89 2 -162 0 -163 -3z"/>
<path d="M3020 950 c-19 -3 -51 -13 -71 -23 -41 -18 -109 -91 -109 -116 0 -9
-7 -34 -15 -56 -30 -84 -10 -202 48 -278 48 -63 101 -80 272 -88 103 -5 154
-4 163 3 8 7 12 28 10 57 l-3 46 -138 3 c-157 3 -175 9 -200 72 -19 48 -5 65
45 56 39 -6 266 -11 272 -5 2 2 6 21 9 41 4 27 1 43 -11 56 -16 17 -27 18
-139 11 -66 -4 -130 -10 -141 -13 -12 -4 -26 0 -36 9 -18 18 -7 53 28 93 18
21 27 22 163 22 142 0 143 0 149 24 3 13 4 38 2 57 l-3 34 -130 0 c-71 0 -146
-2 -165 -5z"/>
<path d="M3452 950 l-63 -5 0 -270 c0 -148 0 -276 0 -283 1 -10 19 -12 73 -10
l71 3 -1 279 c-1 154 -5 282 -9 285 -4 3 -36 4 -71 1z"/>
<path d="M3960 951 c-200 -6 -217 -11 -274 -68 -51 -50 -66 -97 -66 -211 0
-89 3 -109 25 -151 26 -53 83 -103 130 -117 17 -4 84 -9 150 -10 151 -2 145
-1 145 -19 0 -20 -29 -77 -44 -88 -6 -4 -87 -7 -181 -5 l-170 3 0 -60 0 -60
192 2 c200 3 229 8 273 52 48 48 48 48 51 402 l3 334 -25 1 c-13 0 -107 -2
-209 -5z m95 -123 c9 -9 10 -302 1 -316 -5 -8 -39 -12 -92 -12 -147 0 -197 45
-197 176 0 79 17 114 71 144 28 15 203 22 217 8z"/>
<path d="M1370 786 c-61 -23 -146 -46 -170 -46 -30 0 -142 -30 -154 -41 -19
-17 5 -22 93 -20 139 3 139 3 -115 -251 -204 -205 -216 -215 -232 -199 -9 10
-44 50 -77 89 -33 40 -65 72 -71 72 -12 0 -18 -9 -63 -83 l-23 -38 123 -124
c112 -114 151 -142 161 -116 4 12 564 577 641 648 31 28 57 59 57 68 0 17 -78
55 -113 54 -12 0 -38 -6 -57 -13z"/>
</g>
</svg>
