 <svg  version="1.0" xmlns="http://www.w3.org/2000/svg"  width="300.000000pt" height="300.000000pt" viewBox="0 0 300.000000 300.000000"  preserveAspectRatio="xMidYMid meet">  <g transform="translate(0.000000,300.000000) scale(0.100000,-0.100000)" fill="#ffffff" stroke="none"> <path d="M1320 2990 c-240 -33 -455 -114 -660 -248 -115 -76 -327 -288 -404 -406 -404 -614 -320 -1404 203 -1909 229 -220 577 -400 645 -331 13 13 16 42 16 163 l0 148 -42 -8 c-115 -22 -247 -1 -331 53 -60 38 -83 69 -142 186 -47 93 -82 137 -163 200 -23 18 -42 40 -42 48 0 25 48 36 102 24 75 -18 131 -62 201 -159 56 -76 73 -93 127 -120 74 -36 148 -41 241 -15 57 16 58 17 69 65 7 26 27 73 44 102 l33 55 -76 12 c-366 59 -554 255 -592 619 -19 183 9 313 96 441 l51 75 -14 45 c-17 58 -10 225 12 298 l17 52 43 0 c77 0 219 -55 328 -128 l39 -26 92 20 c129 27 442 27 573 1 l91 -19 79 46 c111 64 199 98 271 104 l61 5 18 -54 c23 -73 29 -240 11 -299 l-13 -45 37 -50 c86 -115 125 -255 114 -415 -14 -221 -70 -367 -182 -479 -104 -102 -227 -158 -425 -192 l-68 -11 29 -41 c59 -86 64 -117 69 -415 5 -303 5 -302 70 -302 102 0 376 149 540 294 249 219 411 501 483 836 19 87 23 136 23 290 0 154 -4 203 -23 290 -98 459 -376 829 -781 1039 -216 112 -401 159 -650 166 -85 2 -184 0 -220 -5z"/> </g> </svg> 