<svg id="svg" version="1.1" xmlns="http://www.w3.org/2000/svg" xmlns:xlink="http://www.w3.org/1999/xlink" width="400" height="400" viewBox="0, 0, 400,400"><g id="svgg"><path id="path0" d="M178.264 21.186 C 190.093 21.237,209.553 21.237,221.507 21.186 C 233.462 21.135,223.784 21.093,200.000 21.093 C 176.216 21.093,166.435 21.135,178.264 21.186 M63.158 263.905 L -0.101 263.995 0.099 267.394 C 0.558 275.178,2.136 279.074,11.154 294.689 C 51.826 365.113,49.897 361.897,53.922 366.005 C 60.999 373.226,69.478 377.323,79.512 378.370 C 84.272 378.866,315.904 378.852,320.361 378.355 C 325.825 377.746,333.790 375.310,336.142 373.529 L 336.974 372.898 319.860 343.293 C 310.448 327.010,296.261 302.467,288.335 288.753 L 273.923 263.819 200.170 263.817 C 159.606 263.817,97.950 263.856,63.158 263.905 " stroke="none" fill="#047cf6" fill-rule="evenodd"></path><path id="path1" d="M135.280 27.773 C 130.648 30.816,126.421 34.899,123.556 39.093 C 122.190 41.095,5.665 242.915,4.222 245.781 C 1.912 250.367,0.008 257.913,0.002 262.511 L 0.000 263.993 63.034 263.984 L 126.068 263.975 162.930 200.043 C 183.204 164.880,199.838 135.963,199.896 135.784 C 199.953 135.604,186.083 111.374,169.074 81.940 C 152.064 52.505,137.927 27.997,137.658 27.477 L 137.168 26.533 135.280 27.773 " stroke="none" fill="#04b334" fill-rule="evenodd"></path><path id="path2" d="M262.714 26.652 C 262.714 26.958,210.269 118.072,200.462 134.805 L 199.837 135.870 236.756 199.845 L 273.675 263.819 336.882 263.907 L 400.090 263.995 399.847 261.117 C 399.386 255.656,397.864 249.956,395.725 245.684 C 392.980 240.202,278.192 41.232,275.966 38.097 C 272.738 33.552,262.714 24.895,262.714 26.652 M127.967 33.391 L 126.765 34.699 128.073 33.497 C 128.793 32.836,129.381 32.248,129.381 32.190 C 129.381 31.923,129.086 32.174,127.967 33.391 M399.732 268.178 C 399.732 268.849,399.804 269.124,399.892 268.788 C 399.979 268.452,399.979 267.903,399.892 267.568 C 399.804 267.232,399.732 267.507,399.732 268.178 M396.582 280.105 C 396.165 281.093,395.878 281.958,395.946 282.025 C 396.014 282.093,396.415 281.344,396.838 280.360 C 397.261 279.377,397.548 278.512,397.475 278.439 C 397.402 278.367,397.000 279.116,396.582 280.105 M394.907 283.609 C 394.589 284.233,393.932 285.449,393.446 286.312 C 392.959 287.175,392.730 287.724,392.936 287.533 C 393.441 287.062,395.931 282.476,395.682 282.476 C 395.573 282.476,395.224 282.986,394.907 283.609 M391.805 289.102 C 391.507 289.677,391.342 290.148,391.438 290.148 C 391.534 290.148,391.856 289.677,392.153 289.102 C 392.451 288.527,392.616 288.056,392.520 288.056 C 392.424 288.056,392.102 288.527,391.805 289.102 M390.410 291.543 C 390.112 292.119,389.947 292.589,390.043 292.589 C 390.139 292.589,390.461 292.119,390.759 291.543 C 391.056 290.968,391.221 290.497,391.125 290.497 C 391.029 290.497,390.707 290.968,390.410 291.543 M389.434 293.200 C 389.354 293.344,388.848 294.246,388.310 295.205 C 387.771 296.164,387.493 296.792,387.690 296.600 C 388.195 296.111,389.993 292.938,389.766 292.938 C 389.663 292.938,389.514 293.056,389.434 293.200 M386.574 298.169 C 386.276 298.745,386.111 299.215,386.207 299.215 C 386.303 299.215,386.625 298.745,386.922 298.169 C 387.220 297.594,387.385 297.123,387.289 297.123 C 387.193 297.123,386.871 297.594,386.574 298.169 M385.598 299.826 C 385.518 299.969,385.012 300.872,384.474 301.831 C 383.935 302.790,383.657 303.418,383.854 303.226 C 384.359 302.737,386.157 299.564,385.930 299.564 C 385.827 299.564,385.678 299.682,385.598 299.826 M382.738 304.795 C 382.440 305.371,382.275 305.841,382.371 305.841 C 382.467 305.841,382.789 305.371,383.086 304.795 C 383.384 304.220,383.549 303.749,383.453 303.749 C 383.357 303.749,383.035 304.220,382.738 304.795 M381.343 307.236 C 381.045 307.812,380.880 308.282,380.976 308.282 C 381.072 308.282,381.394 307.812,381.691 307.236 C 381.989 306.661,382.154 306.190,382.058 306.190 C 381.962 306.190,381.640 306.661,381.343 307.236 M380.367 308.893 C 380.287 309.037,379.781 309.939,379.243 310.898 C 378.704 311.857,378.425 312.485,378.623 312.293 C 379.128 311.804,380.926 308.631,380.699 308.631 C 380.596 308.631,380.447 308.749,380.367 308.893 M377.507 313.862 C 377.209 314.438,377.044 314.908,377.140 314.908 C 377.236 314.908,377.558 314.438,377.855 313.862 C 378.153 313.287,378.318 312.816,378.222 312.816 C 378.126 312.816,377.804 313.287,377.507 313.862 M375.049 318.134 C 374.144 319.717,373.336 321.129,373.254 321.273 C 373.173 321.417,373.180 321.534,373.271 321.534 C 373.402 321.534,374.589 319.554,376.876 315.519 C 376.958 315.375,376.951 315.257,376.860 315.257 C 376.770 315.257,375.955 316.552,375.049 318.134 M372.276 322.929 C 371.978 323.505,371.813 323.976,371.909 323.976 C 372.005 323.976,372.327 323.505,372.624 322.929 C 372.922 322.354,373.087 321.883,372.991 321.883 C 372.895 321.883,372.573 322.354,372.276 322.929 M371.300 324.586 C 371.220 324.730,370.714 325.632,370.175 326.591 C 369.637 327.550,369.358 328.178,369.556 327.986 C 370.061 327.497,371.859 324.324,371.632 324.324 C 371.529 324.324,371.379 324.442,371.300 324.586 M368.439 329.555 C 368.142 330.131,367.977 330.602,368.073 330.602 C 368.169 330.602,368.491 330.131,368.788 329.555 C 369.086 328.980,369.251 328.509,369.155 328.509 C 369.059 328.509,368.737 328.980,368.439 329.555 M367.044 331.997 C 366.747 332.572,366.582 333.043,366.678 333.043 C 366.774 333.043,367.096 332.572,367.393 331.997 C 367.691 331.421,367.856 330.950,367.760 330.950 C 367.664 330.950,367.342 331.421,367.044 331.997 M366.069 333.653 C 365.989 333.797,365.483 334.699,364.944 335.658 C 364.406 336.617,364.127 337.245,364.325 337.053 C 364.830 336.564,366.628 333.391,366.401 333.391 C 366.298 333.391,366.148 333.509,366.069 333.653 M363.208 338.622 C 362.911 339.198,362.746 339.669,362.842 339.669 C 362.938 339.669,363.260 339.198,363.557 338.622 C 363.855 338.047,364.020 337.576,363.924 337.576 C 363.828 337.576,363.506 338.047,363.208 338.622 M362.233 340.279 C 362.153 340.423,361.647 341.325,361.108 342.284 C 360.570 343.243,360.291 343.871,360.489 343.679 C 360.994 343.190,362.792 340.017,362.565 340.017 C 362.462 340.017,362.312 340.135,362.233 340.279 M359.372 345.248 C 359.075 345.824,358.910 346.295,359.006 346.295 C 359.102 346.295,359.423 345.824,359.721 345.248 C 360.019 344.673,360.184 344.202,360.088 344.202 C 359.992 344.202,359.670 344.673,359.372 345.248 M358.396 346.905 C 358.317 347.049,357.811 347.951,357.272 348.910 C 356.734 349.869,356.455 350.497,356.653 350.305 C 357.158 349.816,358.956 346.643,358.729 346.643 C 358.626 346.643,358.476 346.761,358.396 346.905 M355.955 351.090 C 355.875 351.234,355.370 352.136,354.831 353.095 C 354.293 354.054,354.014 354.682,354.212 354.490 C 354.716 354.001,356.515 350.828,356.287 350.828 C 356.185 350.828,356.035 350.946,355.955 351.090 M353.095 356.059 C 352.797 356.635,352.632 357.105,352.728 357.105 C 352.824 357.105,353.146 356.635,353.444 356.059 C 353.741 355.484,353.906 355.013,353.810 355.013 C 353.715 355.013,353.393 355.484,353.095 356.059 M350.450 360.331 C 348.103 363.910,343.506 368.541,339.839 371.022 C 336.983 372.954,335.532 374.125,337.402 372.988 C 343.214 369.455,348.507 364.238,351.834 358.762 C 353.293 356.361,352.361 357.417,350.450 360.331 " stroke="none" fill="#fbb404" fill-rule="evenodd"></path><path id="path3" d="M151.874 21.781 C 145.706 22.777,137.196 25.889,137.476 27.046 C 137.731 28.100,199.965 135.305,200.181 135.062 C 200.709 134.467,262.598 27.121,262.598 26.800 C 262.598 26.028,255.629 23.267,250.741 22.103 C 247.296 21.283,156.790 20.988,151.874 21.781 " stroke="none" fill="#04841c" fill-rule="evenodd"></path><path id="path4" d="M274.899 265.475 C 275.371 266.290,288.902 289.712,304.967 317.524 C 337.374 373.628,336.892 372.799,337.123 372.799 C 337.796 372.799,343.169 368.593,345.593 366.168 C 349.963 361.798,347.779 365.383,378.656 311.914 C 399.073 276.561,400.000 274.526,400.000 265.082 L 400.000 263.993 337.020 263.993 L 274.040 263.993 274.899 265.475 " stroke="none" fill="#fb2c24" fill-rule="evenodd"></path></g></svg>