<?xml version="1.0" standalone="no"?>
<!DOCTYPE svg PUBLIC "-//W3C//DTD SVG 20010904//EN"
 "http://www.w3.org/TR/2001/REC-SVG-20010904/DTD/svg10.dtd">
<svg version="1.0" xmlns="http://www.w3.org/2000/svg"
 width="300.000000pt" height="300.000000pt" viewBox="0 0 300.000000 300.000000"
 preserveAspectRatio="xMidYMid meet">
<metadata>
Created by potrace 1.10, written by Peter Selinger 2001-2011
</metadata>
<g transform="translate(0.000000,300.000000) scale(0.100000,-0.100000)"
fill="#ffffff" stroke="none">
<path d="M0 1500 l0 -1500 1500 0 1500 0 0 1500 0 1500 -1500 0 -1500 0 0
-1500z m1520 1266 c0 -14 -4 -46 -10 -73 -5 -26 -19 -104 -30 -173 -22 -132
-31 -178 -54 -300 -17 -86 -29 -154 -52 -295 -9 -55 -20 -118 -24 -140 -34
-173 -68 -385 -62 -385 3 0 117 90 188 148 11 9 86 70 166 135 l145 118 12 82
c7 45 17 100 22 122 16 80 58 311 64 360 3 28 12 82 20 120 7 39 19 99 25 135
6 36 16 89 22 118 l11 52 250 0 249 0 -5 -27 c-3 -16 -10 -53 -16 -83 -27
-141 -43 -232 -56 -315 -8 -49 -22 -128 -30 -175 -24 -127 -32 -175 -49 -280
-9 -52 -20 -115 -26 -140 -8 -38 -36 -195 -110 -620 -13 -72 -38 -212 -49
-275 -5 -27 -15 -81 -21 -120 -6 -38 -16 -92 -21 -120 -5 -27 -20 -113 -34
-190 -14 -77 -30 -164 -36 -192 l-12 -53 -249 0 c-136 0 -248 3 -248 7 0 4 11
66 25 137 14 72 30 154 35 181 24 135 29 165 40 230 6 39 15 90 21 115 10 49
30 164 49 275 6 39 16 89 21 112 5 23 9 50 9 59 0 16 -2 16 -19 -2 -10 -10
-27 -26 -37 -34 -79 -63 -122 -98 -144 -117 -14 -13 -56 -48 -95 -79 -38 -31
-81 -66 -95 -77 -14 -12 -46 -39 -71 -59 -44 -35 -47 -41 -57 -105 -6 -37 -18
-106 -27 -153 -9 -47 -20 -107 -25 -135 -20 -125 -41 -245 -52 -297 l-11 -58
-250 0 -249 0 6 33 c4 17 11 57 16 87 30 180 32 194 65 370 9 47 22 126 30
175 8 50 22 126 30 170 9 44 19 103 24 130 5 28 16 91 25 140 9 50 23 128 31
175 12 76 31 182 55 310 4 25 15 88 24 140 24 140 36 207 51 285 7 39 18 104
25 145 7 41 16 89 21 105 4 17 13 66 19 110 10 76 28 176 36 203 3 9 61 12
249 12 l245 0 0 -24z"/>
</g>
</svg>
