<?xml version="1.0" standalone="no"?>
<!DOCTYPE svg PUBLIC "-//W3C//DTD SVG 20010904//EN"
 "http://www.w3.org/TR/2001/REC-SVG-20010904/DTD/svg10.dtd">
<svg version="1.0" xmlns="http://www.w3.org/2000/svg"
 width="300.000000pt" height="300.000000pt" viewBox="0 0 300.000000 300.000000"
 preserveAspectRatio="xMidYMid meet">
<metadata>
Created by potrace 1.10, written by Peter Selinger 2001-2011
</metadata>
<g transform="translate(0.000000,300.000000) scale(0.100000,-0.100000)"
fill="#ffffff" stroke="none">
<path d="M333 2985 c-162 -44 -276 -159 -318 -322 -22 -86 -22 -2240 0 -2326
43 -165 157 -279 322 -322 86 -22 2240 -22 2326 0 165 43 279 157 322 322 22
86 22 2240 0 2326 -43 165 -157 279 -322 322 -83 22 -2250 21 -2330 0z m727
-780 l0 -175 -175 0 -175 0 0 175 0 175 175 0 175 0 0 -175z m0 -970 l0 -615
-175 0 -175 0 0 615 0 615 175 0 175 0 0 -615z m530 585 c0 -16 1 -30 3 -30 2
0 37 12 78 27 61 22 92 27 179 27 101 1 109 -1 175 -33 81 -40 166 -121 207
-197 55 -102 58 -131 58 -581 l0 -413 -175 0 -175 0 0 368 c0 335 -2 371 -19
407 -10 22 -27 48 -37 57 -28 25 -88 48 -124 48 -60 0 -137 -55 -159 -113 -7
-18 -11 -160 -11 -398 l0 -369 -180 0 -180 0 0 615 0 615 180 0 180 0 0 -30z"/>
</g>
</svg>
