 <svg  version="1.0" xmlns="http://www.w3.org/2000/svg"  width="300.000000pt" height="300.000000pt" viewBox="0 0 300.000000 300.000000"  preserveAspectRatio="xMidYMid meet">  <g transform="translate(0.000000,300.000000) scale(0.100000,-0.100000)" fill="#ffffff" stroke="none"> <path d="M1360 2899 c-188 -22 -339 -67 -504 -152 -383 -196 -664 -577 -742 -1007 -23 -123 -22 -350 1 -479 68 -390 295 -733 625 -946 141 -92 315 -163 493 -202 64 -14 125 -18 272 -18 169 1 202 4 301 27 492 116 877 464 1033 933 54 164 66 242 66 440 0 202 -12 278 -71 455 -154 463 -563 828 -1036 924 -162 33 -297 41 -438 25z m1100 -723 c-12 -11 -547 -456 -881 -732 l-76 -63 -464 385 c-255 212 -473 394 -484 405 -19 19 -8 19 950 19 819 0 967 -2 955 -14z m-1638 -344 c181 -150 328 -273 328 -275 0 -1 -155 -157 -345 -347 l-345 -345 0 634 c0 600 1 633 17 620 10 -8 165 -137 345 -287z m1728 -339 c0 -336 -4 -614 -8 -617 -11 -7 -686 669 -681 682 9 23 674 568 681 558 4 -6 8 -286 8 -623z m-1121 -165 c31 -26 64 -48 74 -48 10 0 77 50 150 110 l131 111 345 -345 c190 -190 343 -348 340 -351 -3 -3 -441 -4 -972 -3 l-967 3 347 347 346 347 75 -62 c41 -34 100 -83 131 -109z"/> </g> </svg> 