<?xml version="1.0" standalone="no"?>
<!DOCTYPE svg PUBLIC "-//W3C//DTD SVG 20010904//EN"
 "http://www.w3.org/TR/2001/REC-SVG-20010904/DTD/svg10.dtd">
<svg version="1.0" xmlns="http://www.w3.org/2000/svg"
 width="512.000000pt" height="512.000000pt" viewBox="0 0 512.000000 512.000000"
 preserveAspectRatio="xMidYMid meet">

<g transform="translate(0.000000,512.000000) scale(0.100000,-0.100000)"
fill="#000000" stroke="none">
<path d="M2490 4684 c-245 -45 -379 -111 -516 -256 -135 -143 -237 -337 -259
-495 l-7 -50 34 -6 c18 -3 85 -9 148 -12 l115 -7 17 71 c34 144 124 281 235
357 225 154 489 131 679 -60 127 -127 188 -275 188 -451 -1 -253 -118 -467
-312 -568 -40 -22 -76 -46 -79 -54 -6 -15 11 -189 24 -255 7 -35 17 -35 108 3
245 101 446 330 526 594 32 106 38 338 11 465 -35 171 -107 317 -216 437 -104
115 -294 232 -433 267 -63 17 -219 28 -263 20z"/>
<path d="M1670 3839 c-36 -5 -112 -26 -170 -45 -262 -88 -424 -223 -545 -455
-124 -239 -122 -474 6 -734 78 -160 218 -293 404 -386 88 -43 144 -61 300 -95
l39 -9 18 -89 c19 -102 26 -120 81 -231 135 -274 376 -453 668 -496 227 -33
473 54 667 236 126 117 214 274 261 465 16 65 34 117 42 121 8 4 58 16 113 28
310 65 575 304 668 601 20 64 23 96 23 220 0 121 -4 158 -23 224 -37 128 -102
242 -194 341 -136 145 -248 212 -446 268 l-120 34 -7 -106 c-4 -58 -8 -126 -9
-151 l-1 -44 70 -18 c118 -31 192 -73 275 -157 225 -226 227 -538 6 -756 -82
-82 -173 -133 -291 -166 -112 -30 -275 -24 -390 15 -144 49 -248 128 -323 244
-50 78 -79 179 -92 331 -19 227 -100 401 -257 553 -189 183 -525 295 -773 257z
m252 -313 c196 -38 347 -146 429 -308 34 -68 55 -153 64 -258 17 -205 79 -369
190 -503 107 -129 273 -239 448 -296 37 -13 67 -28 67 -35 0 -39 -45 -177 -77
-238 -89 -171 -292 -298 -473 -298 -113 0 -248 48 -341 121 -102 81 -200 250
-220 378 -14 95 2 262 36 362 46 138 149 261 273 327 34 18 63 36 66 40 5 8
-10 205 -19 260 -6 31 -9 33 -33 28 -59 -13 -230 -108 -290 -161 -140 -122
-226 -248 -286 -416 -32 -89 -35 -94 -65 -97 -43 -5 -145 23 -221 60 -88 42
-203 158 -248 251 -49 99 -68 203 -54 297 15 103 45 180 100 253 85 112 217
199 348 231 77 19 214 20 306 2z"/>
<path d="M2919 994 c-9 -11 -10 -20 -2 -32 25 -41 86 -14 63 27 -13 25 -42 27
-61 5z"/>
<path d="M1640 765 l0 -235 25 0 25 0 0 105 0 105 100 0 100 0 0 25 0 25 -100
0 -101 0 3 78 3 77 113 3 c111 3 113 3 110 25 -3 21 -7 22 -140 25 l-138 3 0
-236z"/>
<path d="M3077 994 c-4 -4 -7 -110 -7 -236 l0 -228 30 0 30 0 -2 233 c-3 225
-4 232 -23 235 -12 2 -24 0 -28 -4z"/>
<path d="M2055 862 c-16 -11 -36 -27 -44 -36 -13 -15 -13 -19 0 -27 21 -13 46
-11 52 5 3 8 24 20 45 27 58 17 97 -3 97 -51 0 -37 7 -34 -117 -55 -21 -3 -51
-17 -68 -31 -57 -48 -32 -139 46 -164 44 -15 93 -6 122 21 l22 20 0 -21 c0
-16 6 -20 30 -20 l30 0 0 128 c0 140 -13 186 -60 209 -38 19 -120 16 -155 -5z
m155 -196 c0 -48 -8 -65 -41 -81 -58 -31 -129 -6 -129 45 0 34 35 49 163 69 4
0 7 -14 7 -33z"/>
<path d="M2370 705 l0 -175 25 0 25 0 0 124 c0 117 2 127 23 152 31 35 82 38
109 5 15 -20 18 -42 18 -152 l0 -129 25 0 25 0 0 120 c0 68 5 130 11 144 13
27 60 49 87 39 48 -17 52 -29 52 -170 l0 -133 25 0 25 0 0 146 0 146 -29 29
c-40 39 -105 41 -150 4 l-30 -26 -25 26 c-35 35 -106 36 -141 0 l-25 -24 0 24
c0 20 -5 25 -25 25 l-25 0 0 -175z"/>
<path d="M2920 705 l0 -175 25 0 25 0 0 175 0 175 -25 0 -25 0 0 -175z"/>
<path d="M3200 877 c0 -2 29 -82 64 -177 55 -149 62 -178 53 -199 -18 -42 -28
-51 -58 -51 -16 0 -29 -4 -29 -9 0 -5 -3 -16 -6 -25 -5 -13 1 -16 34 -16 69 0
82 19 165 242 42 112 78 211 82 221 6 14 2 17 -23 17 -30 0 -31 -2 -68 -112
-64 -194 -54 -191 -109 -29 -47 136 -50 141 -77 141 -15 0 -28 -1 -28 -3z"/>
</g>
</svg>
