<?xml version="1.0" standalone="no"?>
<!DOCTYPE svg PUBLIC "-//W3C//DTD SVG 20010904//EN"
 "http://www.w3.org/TR/2001/REC-SVG-20010904/DTD/svg10.dtd">
<svg version="1.0" xmlns="http://www.w3.org/2000/svg"
 width="846.000000pt" height="528.000000pt" viewBox="0 0 846.000000 528.000000"
 preserveAspectRatio="xMidYMid meet">
<metadata>
Created by potrace 1.10, written by Peter Selinger 2001-2011
</metadata>
<g transform="translate(0.000000,528.000000) scale(0.100000,-0.100000)"
fill="#000000" stroke="none">
<path d="M3670 5010 c-8 -5 -38 -10 -66 -10 -28 0 -84 -9 -125 -20 -41 -11
-84 -20 -96 -20 -12 0 -37 -6 -55 -14 -18 -7 -58 -21 -88 -31 -194 -60 -475
-228 -632 -377 -10 -10 -21 -18 -26 -18 -4 0 -66 59 -137 130 -71 72 -137 130
-145 130 -8 -1 -44 -37 -80 -81 -36 -45 -69 -86 -75 -93 -59 -67 -164 -250
-220 -381 -9 -22 -23 -53 -30 -70 -7 -16 -21 -57 -30 -90 -8 -33 -21 -76 -27
-95 -28 -85 -45 -288 -42 -504 3 -171 12 -242 51 -376 13 -47 28 -102 32 -123
5 -21 15 -53 24 -70 8 -18 36 -77 62 -132 26 -55 61 -119 76 -143 16 -24 29
-45 29 -48 0 -8 121 -166 160 -207 19 -21 39 -45 43 -53 4 -8 14 -14 22 -14 7
0 71 56 141 125 70 69 135 125 145 125 10 0 54 -31 99 -70 45 -38 91 -75 103
-81 12 -7 24 -15 27 -19 3 -3 23 -17 45 -30 22 -13 45 -28 50 -33 26 -21 170
-93 245 -122 25 -10 54 -21 65 -26 37 -16 113 -39 162 -50 158 -34 224 -41
413 -46 241 -6 310 3 540 67 41 12 83 25 92 31 10 5 23 9 29 9 34 0 328 150
337 172 2 4 8 8 14 8 10 0 154 109 211 160 53 47 53 47 192 -91 71 -71 134
-129 141 -129 7 0 20 10 28 22 8 11 35 42 59 67 89 93 241 342 291 476 10 28
24 64 31 80 23 58 44 131 51 175 4 25 11 51 17 58 5 6 16 87 23 180 14 175 4
452 -18 517 -10 30 -31 115 -47 188 -5 21 -15 53 -24 70 -8 18 -23 52 -33 77
-16 42 -72 158 -98 205 -59 109 -259 365 -283 365 -5 0 -67 -59 -138 -131
-102 -103 -134 -129 -150 -124 -11 3 -47 30 -80 60 -64 59 -248 188 -284 200
-11 3 -21 11 -21 16 0 5 -5 9 -11 9 -6 0 -41 14 -78 31 -145 69 -265 111 -351
124 -25 4 -53 11 -62 16 -48 26 -467 50 -498 29z m300 -400 c130 -18 205 -32
215 -40 6 -5 27 -11 48 -15 20 -4 40 -11 43 -16 3 -5 13 -9 22 -9 10 0 34 -9
55 -20 20 -11 41 -20 47 -20 5 0 39 -18 75 -40 36 -22 69 -40 74 -40 5 0 16
-6 23 -12 7 -7 32 -26 55 -42 23 -15 66 -50 95 -77 29 -26 59 -48 66 -49 6 0
72 58 145 130 72 71 135 130 138 130 4 0 24 -21 45 -46 22 -25 45 -52 52 -59
6 -7 12 -18 12 -24 0 -5 6 -14 13 -18 7 -4 24 -26 37 -48 13 -22 27 -42 30
-45 13 -10 110 -213 110 -230 0 -9 4 -20 9 -25 12 -14 38 -101 51 -170 49
-265 37 -486 -40 -715 -36 -107 -65 -176 -79 -184 -6 -4 -11 -13 -11 -21 0
-16 -63 -123 -88 -151 -10 -11 -23 -27 -28 -36 -24 -43 -99 -118 -117 -118
-13 0 -66 46 -144 125 -68 69 -130 125 -138 125 -8 0 -18 -6 -22 -14 -4 -8
-33 -34 -63 -57 -30 -24 -57 -46 -60 -49 -3 -3 -36 -26 -75 -51 -84 -56 -202
-113 -315 -153 -253 -89 -716 -77 -912 25 -10 5 -23 9 -30 9 -16 0 -99 42
-194 98 -79 46 -158 105 -219 163 l-40 38 -132 -129 c-74 -72 -141 -130 -151
-130 -49 0 -202 227 -293 435 -84 192 -118 490 -80 700 27 149 40 204 57 242
8 17 14 36 14 42 0 6 4 19 9 29 5 9 30 60 56 112 26 52 55 104 66 116 10 11
19 24 19 28 0 26 135 176 158 176 10 0 76 -58 147 -130 l129 -130 36 33 c19
19 55 49 80 68 25 18 47 36 50 40 18 22 271 159 295 159 6 0 23 7 39 15 46 24
206 62 316 75 94 11 225 11 300 0z"/>
<path d="M3635 4360 c-224 -43 -369 -140 -413 -278 -22 -66 -22 -78 -22 -645
0 -350 4 -585 10 -596 5 -11 51 -33 107 -54 126 -45 163 -55 248 -66 39 -5 78
-12 88 -16 12 -5 17 -2 17 11 1 11 1 138 1 284 0 146 3 278 6 294 l5 28 77 -4
c112 -7 179 -48 200 -123 6 -24 11 -130 11 -259 l0 -219 71 7 c63 6 134 22
194 46 11 4 47 18 80 30 33 13 74 31 90 40 l30 17 0 185 c-1 182 -1 185 -28
231 -42 71 -127 123 -220 134 -26 3 -50 9 -52 13 -7 12 56 46 96 52 97 16 185
109 200 210 12 87 11 302 -2 374 -17 91 -97 184 -197 230 -170 77 -205 84
-393 83 -90 -1 -182 -5 -204 -9z m277 -245 c14 -11 38 -44 53 -72 26 -52 26
-56 23 -215 l-3 -163 -32 -36 c-43 -46 -101 -75 -186 -90 -53 -10 -70 -10 -80
0 -9 9 -12 77 -12 260 l0 248 29 37 c15 21 38 42 50 47 35 15 129 5 158 -16z"/>
<path d="M655 1780 c-22 -4 -62 -11 -90 -15 -68 -11 -168 -60 -196 -99 l-24
-31 0 -475 0 -475 151 -3 c118 -2 154 1 162 11 8 9 13 89 14 233 l3 219 29 3
c45 5 113 -18 130 -44 12 -18 16 -64 18 -221 l3 -198 160 0 160 0 3 200 c2
136 -1 209 -9 228 -13 31 -77 77 -108 77 -25 0 -51 10 -51 20 0 4 21 15 48 25
103 39 122 75 122 238 0 142 -11 182 -62 220 -95 72 -321 114 -463 87z m177
-159 c31 -28 32 -31 36 -124 6 -134 -1 -162 -46 -191 -38 -24 -120 -39 -142
-26 -12 8 -15 305 -3 336 8 20 39 33 85 33 28 1 46 -7 70 -28z"/>
<path d="M2485 1783 c-170 -23 -271 -67 -314 -137 -21 -33 -21 -43 -19 -497
l3 -464 160 0 160 0 3 206 2 207 31 6 c52 10 134 7 152 -6 15 -11 17 -39 19
-213 l3 -200 155 0 155 0 3 463 c2 510 4 497 -60 545 -93 70 -298 111 -453 90z
m173 -169 c21 -24 22 -33 22 -182 0 -86 -4 -163 -8 -170 -6 -9 -33 -12 -98
-10 l-89 3 -2 170 c-2 152 -1 172 16 192 33 39 121 38 159 -3z"/>
<path d="M3450 1784 c-14 -2 -56 -9 -94 -15 -123 -20 -209 -76 -221 -143 -4
-17 -5 -211 -3 -431 3 -392 3 -401 25 -431 57 -79 217 -120 438 -111 221 10
319 47 366 140 17 32 19 55 17 170 l-3 132 -160 0 -160 0 -3 -125 c-4 -161
-12 -175 -102 -175 -49 0 -64 4 -76 19 -11 16 -14 88 -15 395 -1 207 -1 383 0
391 1 8 13 25 27 38 35 31 94 30 131 -2 27 -24 28 -28 33 -148 l5 -123 160 0
160 0 3 100 c2 84 -1 109 -18 147 -51 116 -155 163 -375 172 -60 3 -121 3
-135 0z"/>
<path d="M5840 1784 c-187 -37 -225 -51 -282 -106 l-48 -47 0 -412 0 -413 48
-46 c127 -122 472 -147 679 -49 74 35 110 75 118 132 4 23 5 209 3 412 l-3
370 -27 36 c-34 43 -116 85 -206 105 -70 15 -239 26 -282 18z m145 -138 c21
-9 37 -24 40 -38 3 -13 4 -195 3 -405 -2 -283 -6 -385 -15 -394 -21 -21 -119
-24 -148 -5 l-25 17 2 402 3 402 35 17 c43 22 60 22 105 4z"/>
<path d="M6745 1771 c-155 -30 -246 -88 -260 -164 -3 -18 -4 -232 -3 -477 l3
-445 160 0 160 0 2 450 c2 322 6 456 15 472 23 46 128 51 167 9 20 -21 21 -34
23 -477 l3 -454 149 -3 c101 -2 153 1 162 9 12 9 14 89 14 453 0 496 0 495
-75 552 -102 78 -337 112 -520 75z"/>
<path d="M7593 1752 c-42 -37 -43 -39 -43 -103 0 -74 12 -98 71 -134 68 -44
145 -24 193 50 45 67 31 144 -34 199 -26 21 -42 26 -88 26 -52 0 -61 -4 -99
-38z m174 -11 c12 -9 23 -21 23 -27 0 -6 7 -17 15 -24 17 -14 20 -76 4 -85 -5
-4 -14 -18 -19 -31 -5 -13 -16 -24 -24 -24 -7 0 -16 -7 -20 -15 -4 -10 -19
-15 -49 -15 -37 0 -50 6 -83 37 -37 35 -39 39 -39 97 1 39 5 61 13 64 7 2 21
12 30 22 30 32 105 32 149 1z"/>
<path d="M7639 1714 c-15 -19 -21 -124 -6 -124 6 0 19 8 30 18 19 16 20 16 34
-5 9 -13 25 -23 36 -23 16 0 18 3 9 12 -15 15 -16 54 -2 63 15 9 12 34 -5 51
-22 23 -80 27 -96 8z m78 -29 c2 -6 -5 -15 -15 -21 -21 -14 -59 7 -47 26 8 13
57 9 62 -5z"/>
<path d="M1322 1752 c-10 -7 -12 -121 -10 -538 l3 -529 355 0 355 0 0 70 0 70
-192 3 -192 2 -3 168 c-2 92 -1 173 1 180 2 9 48 12 187 12 165 0 184 2 192
18 13 26 6 113 -9 123 -8 5 -93 9 -190 9 -133 0 -178 3 -181 13 -2 6 -1 66 2
132 l5 120 193 3 193 2 -3 73 -3 72 -345 2 c-190 2 -351 -1 -358 -5z"/>
<path d="M4073 1753 c-20 -8 -17 -129 3 -137 9 -3 71 -6 140 -6 l124 0 2 -462
3 -463 160 0 160 0 5 460 5 460 129 3 c75 1 135 7 143 14 20 16 18 124 -3 132
-19 7 -853 7 -871 -1z"/>
<path d="M5065 1750 c-4 -6 -9 -900 -5 -1058 0 -10 35 -12 158 -10 l157 3 3
531 2 532 -22 6 c-37 10 -286 7 -293 -4z"/>
<path d="M472 428 c-20 -24 -122 -227 -122 -243 0 -26 30 -17 48 15 16 29 20
30 87 30 68 0 71 -1 88 -30 17 -27 57 -43 57 -21 0 5 -20 46 -45 92 -24 46
-51 98 -58 114 -19 42 -41 59 -55 43z m34 -95 c7 -10 14 -28 14 -40 0 -20 -5
-23 -35 -23 -28 0 -35 4 -35 20 0 23 21 60 34 60 5 0 15 -8 22 -17z"/>
<path d="M1723 433 c-10 -3 -13 -40 -13 -134 l0 -129 94 0 c94 0 95 0 130 34
33 31 36 38 36 92 0 70 -15 96 -70 124 -37 19 -144 27 -177 13z m144 -45 c41
-17 63 -48 62 -88 0 -58 -48 -100 -116 -100 -53 0 -63 16 -63 100 0 80 11 100
55 100 19 0 47 -5 62 -12z"/>
<path d="M2385 428 c-3 -8 -4 -68 -3 -133 3 -106 5 -120 21 -123 16 -3 17 6
15 129 -2 95 -7 134 -15 137 -7 2 -15 -3 -18 -10z"/>
<path d="M2884 411 c-56 -40 -73 -94 -50 -156 24 -62 64 -88 142 -93 107 -7
174 45 174 135 0 61 -14 89 -59 118 -33 20 -53 25 -104 25 -54 0 -70 -4 -103
-29z m186 -40 c51 -41 54 -89 7 -136 -31 -31 -41 -35 -86 -35 -42 0 -56 5 -86
31 -28 25 -35 38 -35 68 1 42 25 75 72 96 43 19 84 12 128 -24z"/>
<path d="M4064 427 c-2 -7 21 -62 52 -122 62 -122 71 -135 88 -135 18 0 139
251 127 263 -16 16 -36 -7 -78 -93 -24 -50 -43 -79 -52 -77 -8 1 -30 31 -48
67 -57 109 -76 130 -89 97z"/>
<path d="M4725 428 c-3 -8 -4 -68 -3 -133 3 -106 5 -120 21 -123 16 -3 17 6
15 129 -2 95 -7 134 -15 137 -7 2 -15 -3 -18 -10z"/>
<path d="M5171 416 c-16 -17 -21 -33 -19 -56 4 -43 52 -70 124 -70 50 0 84
-19 84 -48 0 -39 -104 -55 -167 -26 -26 13 -37 14 -46 5 -33 -33 89 -73 175
-57 65 12 97 71 68 126 -11 21 -60 40 -105 40 -18 0 -46 5 -64 11 -39 14 -38
38 4 58 26 12 35 12 76 -2 26 -10 54 -17 62 -17 30 0 27 18 -7 39 -25 16 -50
21 -98 21 -55 0 -68 -3 -87 -24z"/>
<path d="M5780 420 c-8 -15 -11 -54 -8 -117 5 -122 17 -136 121 -141 39 -2 84
1 98 6 39 15 59 68 59 155 0 88 -5 107 -31 107 -22 0 -23 -6 -19 -108 3 -103
-11 -122 -90 -122 -82 0 -90 10 -90 119 0 58 -5 93 -14 106 -13 18 -14 18 -26
-5z"/>
<path d="M7102 431 c-9 -5 -12 -41 -10 -132 l3 -124 118 0 c138 0 163 18 30
23 -48 2 -93 8 -100 14 -9 7 -13 41 -13 114 0 102 -5 120 -28 105z"/>
<path d="M1040 321 l0 -109 32 -27 c30 -25 37 -27 109 -23 65 3 81 7 103 27
25 23 26 29 26 133 0 101 -1 108 -20 108 -22 0 -23 -4 -20 -101 1 -45 -4 -77
-14 -98 -16 -30 -19 -31 -81 -31 -61 0 -65 1 -80 30 -10 19 -15 57 -15 115 0
78 -2 85 -20 85 -19 0 -20 -7 -20 -109z"/>
<path d="M6543 418 c-17 -22 -113 -222 -113 -235 0 -24 35 -13 52 17 16 29 20
30 87 30 66 0 71 -1 83 -27 12 -26 58 -46 58 -25 0 10 -80 166 -112 220 -21
34 -39 40 -55 20z m52 -100 c17 -41 12 -48 -31 -48 -28 0 -34 4 -34 22 0 22
26 58 42 58 5 0 15 -15 23 -32z"/>
</g>
</svg>
